<?xml version="1.0" encoding="UTF-8"?>
<svg version="1.1" xmlns="http://www.w3.org/2000/svg" width="180" height="180">
<path d="M0 0 C5.94264904 4.71107389 9.19726929 9.58156768 10.3125 17.109375 C10.51369826 20.45429602 10.19559256 22.6658627 8.5 25.5625 C6.51511251 27.4977653 4.51010759 29.29219836 2.40551758 31.09008789 C-2.28198709 35.17913687 -6.63256408 39.5590527 -10.98828125 43.99609375 C-12.68005489 45.70535892 -14.37212051 47.41433514 -16.06445312 49.12304688 C-18.70550547 51.79523147 -21.34413544 54.46968603 -23.9777832 57.14916992 C-26.53714292 59.7506376 -29.10567168 62.34275202 -31.67578125 64.93359375 C-32.46640457 65.74283798 -33.25702789 66.55208221 -34.0716095 67.385849 C-34.80634995 68.12404373 -35.54109039 68.86223846 -36.2980957 69.62280273 C-36.94237015 70.27675522 -37.58664459 70.9307077 -38.2504425 71.60447693 C-40 73 -40 73 -43 73 C-43.09319077 65.74094618 -43.16401115 58.48202395 -43.20724869 51.22249031 C-43.22801376 47.85058398 -43.25612389 44.47909062 -43.30175781 41.10742188 C-43.35056663 37.21994347 -43.37303643 33.33304265 -43.390625 29.4453125 C-43.41127014 28.25011993 -43.43191528 27.05492737 -43.45318604 25.82351685 C-43.4553842 17.52608855 -42.36328248 10.26478088 -37.10546875 3.59765625 C-26.19255332 -5.13712127 -12.26278436 -8.55543095 0 0 Z " fill="#00B8AC" transform="translate(105,12)"/>
<path d="M0 0 C3.44499029 1.6265281 5.68387983 3.45069873 8.37109375 6.17578125 C9.60375977 7.41811523 9.60375977 7.41811523 10.86132812 8.68554688 C11.71146484 9.55244141 12.56160156 10.41933594 13.4375 11.3125 C14.28376953 12.16779297 15.13003906 13.02308594 16.00195312 13.90429688 C17.58751416 15.50724073 19.17100627 17.11223573 20.75170898 18.7199707 C24.57771896 22.59999102 28.43683945 26.43533672 32.37812805 30.19857788 C34.61774857 32.34380859 36.83821766 34.5084563 39.05834961 36.67382812 C40.23062384 37.81069756 41.40907297 38.94123321 42.59350586 40.06542969 C44.31481282 41.70168383 46.01235548 43.35967115 47.70703125 45.0234375 C48.23819046 45.51846771 48.76934967 46.01349792 49.31660461 46.52352905 C52.11337427 49.31724594 52.97577695 50.74761197 53.35864258 54.73681641 C52.53957261 62.1892937 49.67066494 68.01852035 44 73 C37.29245697 78.05940389 30.05101942 79.00100836 21.859375 78.5546875 C14.97250041 77.56487354 10.57317764 74.43774724 5.625 69.75 C0.49162375 61.06274789 -0.5635529 53.56586303 -0.390625 43.5546875 C-0.38496521 42.30366241 -0.37930542 41.05263733 -0.37347412 39.76370239 C-0.35500183 36.47221292 -0.31920329 33.18153947 -0.2746582 29.89031982 C-0.23339813 26.51812616 -0.21539825 23.14581199 -0.1953125 19.7734375 C-0.15140629 13.18197825 -0.0846151 6.59105571 0 0 Z " fill="#00B8AC" transform="translate(62,95)"/>
<path d="M0 0 C1.50062713 0.0201013 3.00128034 0.03834564 4.50195312 0.0546875 C8.14768483 0.09838313 11.79242199 0.16720798 15.4375 0.25 C15.46276692 7.63728102 15.4803316 15.02455098 15.49243164 22.41186523 C15.49747363 24.92716895 15.50430703 27.44246972 15.51293945 29.95776367 C15.52501094 33.56429775 15.53072949 37.17079323 15.53515625 40.77734375 C15.54031754 41.90961899 15.54547882 43.04189423 15.55079651 44.20848083 C15.55087204 45.24948441 15.55094757 46.29048798 15.55102539 47.36303711 C15.553246 48.28459091 15.55546661 49.20614471 15.55775452 50.15562439 C15.4375 52.25 15.4375 52.25 14.4375 53.25 C10.32700717 53.51859913 6.21250616 53.52147696 2.09399414 53.54516602 C0.03916491 53.56217579 -2.01396704 53.60600484 -4.06835938 53.65039062 C-13.90953596 53.71301192 -21.83698295 52.72864219 -29.4375 46.125 C-35.13132502 39.79852776 -37.31039832 32.41167768 -36.94140625 23.984375 C-35.92202171 16.62799169 -33.03470422 11.06249944 -27.83203125 5.8203125 C-18.91981076 -0.34614643 -10.45534388 -0.24467744 0 0 Z " fill="#00B9AC" transform="translate(42.5625,63.75)"/>
<path d="M0 0 C5.77441483 3.35257966 8.9877664 7.9067949 11.875 13.8125 C13.53617809 22.28450827 13.11242545 29.57881398 8.5 37 C6.39597365 39.92453802 4.03869675 42.44762983 1.5 45 C0.58605469 45.94875 -0.32789063 46.8975 -1.26953125 47.875 C-7.08558804 53.70621017 -11.92664334 57.76308514 -20.5 58 C-21.19480469 58.04125 -21.88960938 58.0825 -22.60546875 58.125 C-25.22569746 58.21144053 -27.13030647 58.18484676 -29.5 57 C-29.62681395 49.68614216 -29.71435758 42.37256798 -29.7746582 35.05786133 C-29.79979671 32.56979782 -29.83391247 30.08180812 -29.87719727 27.59399414 C-29.9378743 24.01690459 -29.96621734 20.44079165 -29.98828125 16.86328125 C-30.01408768 15.75165115 -30.0398941 14.64002106 -30.06648254 13.4947052 C-30.06929085 5.75586321 -30.06929085 5.75586321 -27.11914062 1.83886719 C-19.26496877 -3.67545257 -8.71179308 -3.92625576 0 0 Z " fill="#CCDB28" transform="translate(147.5,31)"/>
<path d="M0 0 C1.11632812 -0.02578125 2.23265625 -0.0515625 3.3828125 -0.078125 C12.08616888 0.73964003 16.6521264 5.37641187 22.5625 11.375 C23.30822266 12.096875 24.05394531 12.81875 24.82226562 13.5625 C30.32497932 19.07993996 34.00186184 24.42847971 35.40625 32.18359375 C35.31184558 39.74774775 34.10288692 46.38090755 29.14453125 52.32421875 C23.61047791 57.59316774 17.44607532 60.25153741 9.8125 60.625 C5.42069321 60.20673269 1.76740078 59.33216249 -2.125 57.25 C-2.97956787 56.81034912 -3.83413574 56.37069824 -4.71459961 55.91772461 C-8.58187546 51.63759464 -7.76171731 47.084509 -7.6484375 41.51953125 C-7.64373444 40.37336838 -7.63903137 39.22720551 -7.63418579 38.04631042 C-7.61282354 34.38443079 -7.55617187 30.72399375 -7.5 27.0625 C-7.48349715 24.58399793 -7.46914799 22.10548052 -7.45703125 19.62695312 C-7.42302754 15.1089463 -7.38845403 10.59108158 -7.31787109 6.07348633 C-7.30501068 5.16399734 -7.29215027 4.25450836 -7.27890015 3.31745911 C-6.95431234 -1.04297864 -3.69603991 0.05051535 0 0 Z " fill="#CDDB28" transform="translate(125.125,92.75)"/>
<path d="M0 0 C0 14.52 0 29.04 0 44 C-15.18 44 -30.36 44 -46 44 C-39.23820378 36.11123775 -39.23820378 36.11123775 -35.5390625 32.40625 C-34.73726562 31.60316406 -33.93546875 30.80007812 -33.109375 29.97265625 C-32.28953125 29.15667969 -31.4696875 28.34070313 -30.625 27.5 C-29.81289062 26.68402344 -29.00078125 25.86804688 -28.1640625 25.02734375 C-23.84356799 20.71377311 -19.44251784 16.57803909 -14.81298828 12.59912109 C-11.597157 9.76264185 -8.65897031 6.66562471 -5.6953125 3.56835938 C-2.2110892 0 -2.2110892 0 0 0 Z " fill="#CCDC28" transform="translate(114,44)"/>
<path d="M0 0 C6.39037231 -0.02527062 12.78073183 -0.04283317 19.17114258 -0.05493164 C21.34692873 -0.05997308 23.52271147 -0.06680607 25.69848633 -0.07543945 C28.81853067 -0.08751338 31.93853038 -0.09323005 35.05859375 -0.09765625 C36.52733192 -0.10539818 36.52733192 -0.10539818 38.02574158 -0.11329651 C39.37702904 -0.11340981 39.37702904 -0.11340981 40.75561523 -0.11352539 C41.95141457 -0.11685631 41.95141457 -0.11685631 43.17137146 -0.12025452 C45 0 45 0 46 1 C46.09268999 2.35094982 46.11747326 3.70667091 46.11352539 5.06079102 C46.11344986 5.92160782 46.11337433 6.78242462 46.11329651 7.66932678 C46.10813522 8.60473801 46.10297394 9.54014923 46.09765625 10.50390625 C46.0962413 11.45692123 46.09482635 12.40993622 46.09336853 13.39183044 C46.08775152 16.44875165 46.07519616 19.50560077 46.0625 22.5625 C46.05748719 24.62955624 46.05292391 26.69661362 46.04882812 28.76367188 C46.03777656 33.84247588 46.02050055 38.9212257 46 44 C42.48915844 42.34699265 40.24250567 40.46260282 37.515625 37.67578125 C36.23558594 36.37930664 36.23558594 36.37930664 34.9296875 35.05664062 C34.04539063 34.15107422 33.16109375 33.24550781 32.25 32.3125 C26.94465565 26.90089134 21.65159919 21.59029221 15.89355469 16.65991211 C12.62139029 13.79149466 9.56585158 10.71058882 6.5 7.625 C5.86835937 6.99722656 5.23671875 6.36945313 4.5859375 5.72265625 C3.99039063 5.12582031 3.39484375 4.52898437 2.78125 3.9140625 C2.24564453 3.3773291 1.71003906 2.8405957 1.15820312 2.28759766 C0 1 0 1 0 0 Z " fill="#CCDB28" transform="translate(68,93)"/>
</svg>
